<?xml version="1.0" encoding="UTF-8"?>
<svg width="768px" height="669px" viewBox="0 0 768 669" version="1.1" xmlns="http://www.w3.org/2000/svg" xmlns:xlink="http://www.w3.org/1999/xlink">
    <!-- Generator: Sketch 42 (36781) - http://www.bohemiancoding.com/sketch -->
    <title>Lines</title>
    <desc>Created with Sketch.</desc>
    <defs></defs>
    <g id="MENU-PAGES" stroke="none" stroke-width="1" fill="none" fill-rule="evenodd" opacity="0.100000001">
        <g id="Tablet-Portrait---Home" fill="#FFFFFF">
            <g id="Super-Graphic" transform="translate(-17.000000, -178.000000)">
                <g id="Lines" transform="translate(0.575371, 0.993161)">
                    <polygon id="Fill-1" points="793.340777 203.294639 789.539243 196.547675 461.725496 618.620954 466.369246 628.597742"></polygon>
                    <polygon id="Fill-2" points="456.354137 625.167127 461.661752 618.634825 563.80774 748.983656 563.044791 760.965048"></polygon>
                    <polygon id="Fill-3" points="412.368642 284.026371 423.400026 284.026371 520.598405 408.708148 509.567022 408.708148"></polygon>
                    <path d="M568.821735,386.607301 L560.809119,386.607301 L560.809119,367.327431 C557.12979,281.00064 486.367097,213.240384 399.724496,213.240384 C359.383982,213.240384 320.784048,228.197309 291.029037,255.366801 C261.468893,282.377773 243.065638,319.088126 239.224471,358.777314 L231.254792,358.004534 C235.284219,316.347068 254.599049,277.797235 285.622338,249.465271 C316.863613,220.941764 357.385782,205.221965 399.724496,205.221965 C490.670658,205.221965 564.940934,276.360657 568.811827,367.159004 L568.821735,386.607301 Z" id="Fill-4"></path>
                    <path d="M399.662734,166.56183 C509.570324,166.56183 600.2985,253.47316 604.971976,363.227734 L604.978581,844.702696 L596.61917,843.744977 L596.61917,362.428534 C592.12735,256.808663 505.606953,173.956079 399.662734,173.956079" id="Fill-6"></path>
                    <path d="M196.47852,843.77635 L203.87351,843.77635 L203.87351,362.456605 C208.368634,256.836734 294.895636,173.990755 400.83325,173.990755 C450.157406,173.990755 497.361159,192.286487 533.751513,225.512724 C569.900763,258.524301 592.396198,303.428102 597.076279,351.948118 L604.441544,351.241388 C599.576506,300.888496 576.242157,254.303733 538.728847,220.053727 C500.977735,185.582455 452.006979,166.599808 400.83325,166.599808 C290.925659,166.599808 201.161904,252.556722 196.481823,362.301388 L196.47852,843.77635 Z" id="Fill-8"></path>
                    <polygon id="Fill-10" points="6.37904619 356.685524 6.37904619 363.881625 327.256894 363.881625 332.894789 356.685524"></polygon>
                    <polygon id="Fill-12" points="477.381474 363.883606 788.985032 363.883606 788.985032 356.687505 477.381474 356.687505"></polygon>
                    <polygon id="Fill-14" points="6.37904619 402.886539 6.37904619 410.076035 316.192482 410.076035 321.807258 402.886539"></polygon>
                    <polygon id="Fill-15" points="790.505646 402.886539 790.505646 410.076035 480.282661 410.076035 474.671188 402.886539"></polygon>
                    <polygon id="Fill-16" points="790.505646 534.745593 790.505646 541.931787 601.139065 541.931787 600.164736 534.745593"></polygon>
                    <polygon id="Fill-17" points="6.95901953 534.745593 6.95901953 541.931787 195.453658 541.931787 196.444501 534.745593"></polygon>
                    <polygon id="Fill-18" points="6.95901953 271.423452 6.95901953 278.612948 67.2617146 278.612948 67.5754815 271.423452"></polygon>
                    <polygon id="Fill-19" points="6.95901953 295.782204 6.95901953 302.968397 51.1241876 302.968397 51.3586871 295.782204"></polygon>
                    <polygon id="Fill-20" points="6.95901953 244.745699 6.95901953 251.92859 51.1241876 251.92859 51.3586871 244.745699"></polygon>
                    <polygon id="Fill-21" points="752.912408 295.782204 752.912408 302.968397 797.077576 302.968397 797.312075 295.782204"></polygon>
                    <polygon id="Fill-22" points="752.912408 244.745699 752.912408 251.92859 797.077576 251.92859 797.312075 244.745699"></polygon>
                    <polygon id="Fill-23" points="733.189681 271.423452 733.189681 278.612948 793.492376 278.612948 793.809446 271.423452"></polygon>
                    <polygon id="Fill-24" points="6.95901953 498.78061 6.95901953 505.973409 195.453658 505.973409 196.444501 498.78061"></polygon>
                    <polygon id="Fill-25" points="6.95901953 463.986026 6.95901953 471.168917 195.453658 471.168917 196.444501 463.986026"></polygon>
                    <polygon id="Fill-26" points="600.940236 498.78061 600.940236 505.973409 789.431572 505.973409 790.419112 498.78061"></polygon>
                    <polygon id="Fill-27" points="600.940236 463.986026 600.940236 471.168917 789.431572 471.168917 790.419112 463.986026"></polygon>
                    <polygon id="Fill-28" points="560.780715 844.490016 568.83957 844.490016 568.83957 378.391395 560.780715 378.391395"></polygon>
                    <polygon id="Fill-29" points="388.494944 284.353646 378.721931 284.353646 281.32208 409.19064 291.729233 409.19064"></polygon>
                    <polygon id="Fill-30" points="527.185198 453.236788 225.536307 844.10825 235.887312 844.10825 536.611416 453.236788"></polygon>
                    <polygon id="Fill-31" points="272.512827 453.236788 574.174929 844.10825 563.814015 844.10825 263.089911 453.236788"></polygon>
                    <polygon id="Fill-32" points="279.265421 432.018363 283.816692 436.978686 279.265421 441.962126 283.783664 446.08362 292.119955 436.978686 283.783664 427.877055"></polygon>
                    <polygon id="Fill-33" points="260.106484 432.018363 264.654452 436.978686 260.106484 441.962126 264.618121 446.08362 272.944504 436.978686 264.618121 427.877055"></polygon>
                    <polygon id="Fill-34" points="32.6515743 441.942972 28.1003029 436.976044 32.6515743 431.995906 28.1399366 427.877716 19.8135539 436.976044 28.1399366 446.08428"></polygon>
                    <polygon id="Fill-35" points="55.8551319 441.942972 51.3071633 436.976044 55.8551319 431.995906 51.3401914 427.877716 43.0138087 436.976044 51.3401914 446.08428"></polygon>
                    <polygon id="Fill-36" points="79.0573683 441.942972 74.5060969 436.976044 79.0573683 431.995906 74.5457306 427.877716 66.2127424 436.976044 74.5457306 446.08428"></polygon>
                    <polygon id="Fill-37" points="102.262577 441.942972 97.7113059 436.976044 102.262577 431.995906 97.744334 427.877716 89.4212541 436.976044 97.744334 446.08428"></polygon>
                    <polygon id="Fill-38" points="125.462172 441.942972 120.9109 436.976044 125.462172 431.995906 120.950534 427.877716 112.620848 436.976044 120.950534 446.08428"></polygon>
                    <polygon id="Fill-39" points="148.663087 441.942972 144.111815 436.976044 148.663087 431.995906 144.154752 427.877716 135.825066 436.976044 144.154752 446.08428"></polygon>
                    <polygon id="Fill-40" points="171.867966 441.942972 167.316694 436.976044 171.867966 431.995906 167.353025 427.877716 159.026642 436.976044 167.353025 446.08428"></polygon>
                    <polygon id="Fill-41" points="766.749858 432.018363 771.30113 436.978686 766.749858 441.962126 771.268102 446.08362 779.594484 436.978686 771.268102 427.877055"></polygon>
                    <polygon id="Fill-42" points="743.547952 432.018363 748.099223 436.978686 743.547952 441.962126 748.066195 446.08362 756.392578 436.978686 748.066195 427.877055"></polygon>
                    <polygon id="Fill-43" points="720.351 432.018363 724.898969 436.978686 720.351 441.962126 724.859335 446.08362 733.18902 436.978686 724.859335 427.877055"></polygon>
                    <polygon id="Fill-44" points="697.143149 432.018363 701.691117 436.978686 697.143149 441.962126 701.661392 446.08362 709.984472 436.978686 701.661392 427.877055"></polygon>
                    <polygon id="Fill-45" points="673.946527 432.018363 678.48789 436.978686 673.946527 441.962126 678.458165 446.08362 686.784548 436.978686 678.458165 427.877055"></polygon>
                    <polygon id="Fill-46" points="650.741318 432.018363 655.289287 436.978686 650.741318 441.962126 655.256259 446.08362 663.582641 436.978686 655.256259 427.877055"></polygon>
                    <polygon id="Fill-47" points="627.536109 432.018363 632.087381 436.978686 627.536109 441.962126 632.054353 446.08362 640.380735 436.978686 632.054353 427.877055"></polygon>
                    <polygon id="Fill-48" points="395.278254 668.106615 400.24568 663.555799 405.226316 668.106615 409.34492 663.595429 400.24568 655.259973 391.139834 663.595429"></polygon>
                    <polygon id="Fill-49" points="395.278254 687.268917 400.24568 682.718101 405.226316 687.268917 409.34492 682.754428 400.24568 674.425577 391.139834 682.754428"></polygon>
                    <polygon id="Fill-50" points="395.278254 750.804642 400.24568 746.250524 405.226316 750.804642 409.34492 746.290154 400.24568 737.951396 391.139834 746.290154"></polygon>
                    <polygon id="Fill-51" points="395.278254 769.966944 400.24568 765.412826 405.226316 769.966944 409.34492 765.449153 400.24568 757.123605 391.139834 765.449153"></polygon>
                    <polygon id="Fill-52" points="395.278254 787.508059 400.24568 782.960546 405.226316 787.508059 409.34492 782.996874 400.24568 774.661418 391.139834 782.996874"></polygon>
                    <polygon id="Fill-53" points="521.216691 441.942972 516.66542 436.976044 521.216691 431.995906 516.698448 427.877716 508.365459 436.976044 516.698448 446.08428"></polygon>
                    <polygon id="Fill-54" points="540.383885 441.942972 535.832614 436.976044 540.383885 431.995906 535.865642 427.877716 527.539259 436.976044 535.865642 446.08428"></polygon>
                    <polygon id="Fill-55" points="230.896106 844.536251 238.878997 844.536251 238.878997 360.191435 230.896106 360.191435"></polygon>
                    <path d="M604.978251,23.394098 L604.971645,49.6719203 C604.806505,53.6910368 604.476224,57.6705235 604.08319,61.6202879 L604.443196,61.6533127 C599.574855,112.009507 576.243809,158.597572 538.730499,192.847578 C501.445083,226.889528 453.204248,245.802823 402.724108,246.258565 C401.696934,246.271775 400.682972,246.337824 399.662404,246.337824 L399.662404,246.271775 C290.293171,245.657514 201.143738,159.944984 196.480171,50.5966143 L196.476869,23.394098 L203.875162,23.394098 L203.875162,50.4347929 C208.370285,156.057966 294.893985,238.907247 400.834901,238.907247 C401.657301,238.907247 402.463186,238.864315 403.27898,238.847803 C507.561886,236.981902 592.176561,154.878982 596.61884,50.4678177 L596.61884,23.394098 L604.978251,23.394098 Z" id="Fill-56"></path>
                    <path d="M568.81612,34.5056175 L568.809515,45.7373473 C564.941925,136.538997 490.671649,207.671084 399.144193,207.671084 L399.144193,199.662573 C486.368088,199.662573 557.127478,131.895712 560.806807,45.5590135 L560.806807,34.5056175 L560.780385,34.5056175 L560.780385,23.392777 L568.83924,23.392777 L568.83924,34.5056175 L568.81612,34.5056175 Z" id="Fill-57"></path>
                    <path d="M230.067432,45.7393288 L230.057523,34.507599 L230.044312,34.507599 L230.044312,23.3947585 L238.099864,23.3947585 L238.099864,34.507599 L238.073442,34.507599 L238.073442,45.5609949 C241.749469,131.897693 312.515464,199.664554 399.154762,199.664554 L399.154762,207.669763 C308.211903,207.669763 233.938324,136.540978 230.067432,45.7393288" id="Fill-58"></path>
                    <path d="M398.277205,239.855719 C329.106467,239.855719 270.752429,291.575837 262.564765,360.191435 L270.514627,361.139246 C278.22999,296.552672 333.152408,247.860927 398.277205,247.860927 C463.230256,247.860927 517.072656,296.225727 525.739228,358.834116 L533.811294,358.834116 C525.088575,291.803708 467.656021,239.855719 398.277205,239.855719" id="Fill-60"></path>
                    <polygon id="Fill-61" points="540.947675 726.079976 532.456152 712.998858 532.456152 539.308298 540.947675 526.544218"></polygon>
                    <polygon id="Fill-62" points="502.839199 680.487937 494.350978 667.403517 494.350978 581.420184 502.839199 568.662709"></polygon>
                    <polygon id="Fill-63" points="346.43862 625.167127 341.127702 618.634825 238.985017 748.983656 239.751269 760.965048"></polygon>
                    <polygon id="Fill-64" points="261.851688 726.079976 270.336606 712.998858 270.336606 539.308298 261.851688 526.544218"></polygon>
                    <polygon id="Fill-65" points="299.956201 680.487937 308.444421 667.403517 308.444421 581.420184 299.956201 568.662709"></polygon>
                    <path d="M203.131699,844.890607 L203.128397,816.987965 C198.530886,709.072871 113.711436,623.647657 7.38739392,616.748779 L7.38739392,624.334573 C109.635769,631.22024 191.132593,713.458563 195.545146,817.146484 L195.545146,844.890607 L203.131699,844.890607 Z" id="Fill-66"></path>
                    <path d="M160.465676,822.144125 L160.465676,833.494744 L160.435951,833.494744 L160.435951,844.888295 L168.702883,844.888295 L168.702883,833.494744 L168.686369,833.494744 L168.676461,821.975698 C164.87823,732.917758 95.0469295,662.34379 7.38706364,656.326674 L7.38706364,664.559753 C90.6310732,670.560356 156.865614,737.670024 160.465676,822.144125" id="Fill-67"></path>
                    <path d="M125.776269,831.617945 C125.776269,833.721624 125.822508,841.475844 125.878656,844.890607 L134.092743,844.890607 C134.036595,841.518776 133.990356,833.688599 133.990356,831.617945 C133.990356,758.900669 78.3314108,699.010219 7.38706364,692.121249 L7.38706364,700.34442 C73.7999562,707.190459 125.776269,763.425064 125.776269,831.617945" id="Fill-68"></path>
                    <path d="M595.023253,844.890607 L595.029859,816.987965 C599.624066,709.072871 684.443516,623.647657 790.767558,616.748779 L790.767558,624.334573 C688.51588,631.22024 607.02236,713.458563 602.609806,817.146484 L602.609806,844.890607 L595.023253,844.890607 Z" id="Fill-69"></path>
                    <path d="M637.690267,822.144125 L637.690267,833.494744 L637.716689,833.494744 L637.716689,844.888295 L629.456363,844.888295 L629.456363,833.494744 L629.472877,833.494744 L629.479482,821.975698 C633.27441,732.917758 703.112316,662.34379 790.768879,656.326674 L790.768879,664.559753 C707.518264,670.560356 641.290329,737.670024 637.690267,822.144125" id="Fill-70"></path>
                    <path d="M672.380995,831.617945 C672.380995,833.721624 672.331453,841.475844 672.275306,844.890607 L664.057916,844.890607 C664.114063,841.518776 664.160303,833.688599 664.160303,831.617945 C664.160303,758.900669 719.822551,699.010219 790.770201,692.121249 L790.770201,700.34442 C724.350702,707.190459 672.380995,763.425064 672.380995,831.617945" id="Fill-71"></path>
                    <polygon id="Fill-72" points="205.840664 331.702933 5.79610032 72.7886101 5.79610032 85.463523 200.196162 336.943967"></polygon>
                    <polygon id="Fill-73" points="137.895598 198.540391 0 26.3062236 0 38.9877415 132.254399 203.791332"></polygon>
                    <polygon id="Fill-74" points="90.3311781 631.220571 6.95835897 535.54116 6.95835897 548.225981 84.6866768 636.461604"></polygon>
                    <polygon id="Fill-75" points="708.988675 631.220571 792.354889 535.54116 792.354889 548.225981 714.626571 636.461604"></polygon>
                    <polygon id="Fill-76" points="150.656663 173.026432 12.7577621 0.785659662 12.7577621 13.4671775 145.015464 178.267465"></polygon>
                    <polygon id="Fill-77" points="662.578587 198.540391 800.474185 26.3062236 800.474185 38.9877415 668.226391 203.791332"></polygon>
                    <polygon id="Fill-78" points="649.817522 173.026432 787.71312 0.785659662 787.71312 13.4671775 655.465327 178.267465"></polygon>
                    <polygon id="Fill-79" points="595.653759 331.702933 788.874718 81.2627702 788.874718 93.9475906 602.107449 338.562181"></polygon>
                    <polygon id="Fill-80" points="341.070234 618.619633 6.9613315 188.230713 6.9613315 200.066796 336.423181 628.599724"></polygon>
                    <polygon id="Fill-81" points="124.815151 671.687823 132.395099 675.360179 204.620936 584.872265 204.620936 571.692073"></polygon>
                    <polygon id="Fill-82" points="102.164484 652.307887 109.737826 655.986849 199.977186 542.923191 199.977186 529.739696"></polygon>
                    <polygon id="Fill-83" points="695.988817 652.307887 688.418778 655.986849 598.176115 542.923191 598.176115 529.739696"></polygon>
                    <polygon id="Fill-84" points="671.701938 242.069371 666.374506 249.985412 577.291129 140.405869 581.214867 129.550622"></polygon>
                    <polygon id="Fill-85" points="686.70462 216.360565 681.373885 224.283212 590.437632 113.336443 594.36137 102.477893"></polygon>
                    <polygon id="Fill-86" points="129.543123 242.069371 134.87716 249.985412 223.957234 140.405869 220.033496 129.550622"></polygon>
                    <polygon id="Fill-87" points="114.545395 216.360565 119.87613 224.283212 210.805777 113.336443 206.885342 102.477893"></polygon>
                    <polygon id="Fill-90" points="399.851655 714.56027 500.544407 845.430892 510.700546 845.430892 399.851655 701.792887 289.002764 845.430892 299.158903 845.430892"></polygon>
                    <polygon id="Fill-91" points="399.851655 809.822247 426.564778 844.547809 436.496326 844.547809 399.851655 797.06147 363.210287 844.547809 373.138532 844.547809"></polygon>
                    <polygon id="Fill-92" points="87.0042582 553.030427 116.329903 591.144332 127.225872 591.144332 87.0042582 539.027917 46.7859474 591.144332 57.6819158 591.144332"></polygon>
                    <polygon id="Fill-95" points="714.626901 553.030427 743.952546 591.144332 754.851817 591.144332 714.626901 539.027917 674.405287 591.144332 685.304559 591.144332"></polygon>
                    <path d="M95.5357453,844.678257 L89.1778371,844.678257 C89.1778371,790.018934 51.7768228,745.551059 5.79841229,745.551059 L5.79841229,739.203695 C55.2778008,739.203695 95.5357453,786.521609 95.5357453,844.678257" id="Fill-97"></path>
                    <path d="M711.300311,844.678257 L704.942403,844.678257 C704.942403,786.521609 745.197045,739.203695 794.67313,739.203695 L794.67313,745.551059 C748.698023,745.551059 711.300311,790.018934 711.300311,844.678257" id="Fill-98"></path>
                    <polygon id="Fill-99" points="89.6544325 303.615683 85.7339977 292.760436 34.1672336 356.871453 46.3612061 356.871453"></polygon>
                    <polygon id="Fill-100" points="74.6623198 278.364601 69.5000286 270.105102 7.1033523 346.51455 7.1033523 356.874425 10.6736893 356.874425"></polygon>
                    <polygon id="Fill-101" points="714.688664 303.615683 718.609098 292.760436 770.175862 356.871453 757.985193 356.871453"></polygon>
                    <polygon id="Fill-102" points="729.680446 278.364601 734.849343 270.105102 797.239413 346.51455 797.239413 356.874425 793.669076 356.874425"></polygon>
                    <polygon id="Fill-103" points="212.298977 303.543029 217.943479 298.301995 153.056484 217.25917 147.791806 223.167304"></polygon>
                    <polygon id="Fill-104" points="230.703222 272.78077 170.555759 197.649382 165.291081 203.541004 225.058721 278.031711"></polygon>
                    <polygon id="Fill-105" points="589.333833 302.382207 583.686029 297.144476 648.576327 216.101651 653.841005 222.006483"></polygon>
                    <polygon id="Fill-106" points="570.929258 271.626554 631.083327 196.485258 636.341399 202.386788 576.577062 276.864285"></polygon>
                    <polygon id="Fill-107" points="77.7243544 637.62903 85.3043021 641.291479 168.003348 539.026927 157.364999 539.026927"></polygon>
                    <polygon id="Fill-108" points="675.659034 671.687823 668.079086 675.360179 597.458414 587.745421 597.458414 574.568532"></polygon>
                    <polygon id="Fill-109" points="722.748509 637.62903 715.175167 641.291479 632.469516 539.026927 643.104562 539.026927"></polygon>
                </g>
            </g>
        </g>
    </g>
</svg>